HIERARCHY
ROOT Hips
{
	OFFSET 0.000000 0.000000 0.000000
	CHANNELS 6 Xposition Yposition Zposition Zrotation Yrotation Xrotation 
	JOINT LHipJoint
	{
		OFFSET 0.000000 0.000000 0.000000
		CHANNELS 3 Zrotation Yrotation Xrotation
		JOINT LeftUpLeg
		{
			OFFSET 1.363060 -1.794630 0.839290
			CHANNELS 3 Zrotation Yrotation Xrotation
			JOINT LeftLeg
			{
				OFFSET 2.448110 -6.726130 0.000000
				CHANNELS 3 Zrotation Yrotation Xrotation
				JOINT LeftFoot
				{
					OFFSET 2.562200 -7.039590 0.000000
					CHANNELS 3 Zrotation Yrotation Xrotation
					JOINT LeftToeBase
					{
						OFFSET 0.157640 -0.433110 2.322550
						CHANNELS 3 Zrotation Yrotation Xrotation
						End Site
						{
							OFFSET 0.000000 0.000000 0.000000
						}
					}
				}
			}
		}
	}
	JOINT RHipJoint
	{
		OFFSET 0.000000 0.000000 0.000000
		CHANNELS 3 Zrotation Yrotation Xrotation
		JOINT RightUpLeg
		{
			OFFSET -1.305520 -1.794630 0.839290
			CHANNELS 3 Zrotation Yrotation Xrotation
			JOINT RightLeg
			{
				OFFSET -2.542530 -6.985550 0.000000
				CHANNELS 3 Zrotation Yrotation Xrotation
				JOINT RightFoot
				{
					OFFSET -2.568260 -7.056230 0.000000
					CHANNELS 3 Zrotation Yrotation Xrotation
					JOINT RightToeBase
					{
						OFFSET -0.164730 -0.452590 2.363150
						CHANNELS 3 Zrotation Yrotation Xrotation
						End Site
						{
							OFFSET 0.000000 0.000000 0.000000
						}
					}
				}
			}
		}
	}
}
MOTION
Frames: 11
Frame Time: 0.008333
1.752325 16.605266 -2.013579 -152.376266 85.234870 -133.199261 -12.513876 2.167185 -2.337556 -4.798849 0.240771 -2.984405 -0.519940 2.162078 31.962881 1.452091 9.055305 1.366156 1.254600 0.000001 -76.943300 7.066584 0.849189 1.935923 0.752434 11.624654 -43.064071 2.278818 -1.011950 17.818208 1.150458 7.154909 9.966543 1.702099 -0.000000 -56.490800
1.936405 16.611269 -2.028504 -151.437295 84.651670 -132.254336 -12.829062 2.134406 -2.392263 -4.084443 0.981132 -4.348036 -0.311997 2.332244 34.593382 1.598015 9.962690 2.951793 1.604399 0.000000 -74.932600 6.934405 0.729861 1.787930 1.693211 11.252735 -42.954607 2.298454 -1.107130 19.040181 1.085241 6.638541 9.544493 1.492799 0.000000 -55.700599
2.117543 16.621229 -2.042036 -151.161140 84.036484 -131.976423 -13.111892 2.077614 -2.461179 -3.425918 1.798316 -5.821448 -0.120758 2.489521 37.283262 1.775007 11.056614 4.401714 2.010700 -0.000000 -71.446500 6.819588 0.621489 1.651513 2.562501 10.875741 -42.740775 2.329313 -1.178893 20.135291 1.020313 6.154012 8.795783 1.271000 -0.000000 -55.191100
2.295823 16.635015 -2.054126 -151.383443 83.394486 -132.193120 -13.360111 1.997610 -2.540996 -2.835761 2.660444 -7.394106 0.046420 2.637295 40.003324 1.975689 12.319468 5.602105 2.461000 0.000000 -66.590800 6.720190 0.522782 1.534168 3.338666 10.527894 -42.424368 2.366976 -1.226598 21.082980 0.952986 5.692293 7.808039 1.048900 0.000001 -54.919600
2.471064 16.652568 -2.064131 -152.076355 82.742188 -132.876064 -13.559670 1.900582 -2.631093 -2.360550 3.522368 -9.030235 0.185626 2.779195 42.701531 2.192407 13.732812 6.475533 2.937601 0.000000 -60.738501 6.646770 0.439194 1.435851 3.985486 10.214877 -42.007227 2.403671 -1.252770 21.877852 0.882057 5.260237 6.670530 0.841400 0.000000 -54.836100
2.643405 16.673882 -2.072485 -153.109421 82.078902 -133.887351 -13.713547 1.790750 -2.725882 -2.003242 4.351649 -10.720006 0.298655 2.918689 45.337735 2.414878 15.239060 6.985116 3.407700 -0.000001 -54.468500 6.595967 0.367869 1.360105 4.502032 9.951008 -41.496287 2.436323 -1.257263 22.495938 0.805248 4.836628 5.483114 0.651799 0.000000 -54.871200
2.812879 16.698978 -2.079384 -154.427471 81.409789 -135.169094 -13.819743 1.674200 -2.820538 -1.782284 5.109773 -12.439699 0.390149 3.056731 47.864243 2.635337 16.781326 7.150984 3.841300 -0.000000 -48.455500 6.570769 0.309256 1.304259 4.883822 9.728845 -40.898108 2.461072 -1.242207 22.925941 0.722148 4.411279 4.331608 0.483400 0.000000 -54.961400
2.979563 16.727964 -2.085304 -155.964991 80.735082 -136.652698 -13.881290 1.555885 -2.908387 -1.702841 5.764546 -14.174470 0.465855 3.192363 50.246768 2.846565 18.292375 7.020512 4.209301 0.000000 -43.213400 6.570724 0.261567 1.264864 5.139966 9.534066 -40.222053 2.476327 -1.209577 23.157972 0.633061 3.971078 3.286713 0.335400 0.000000 -55.050901
3.143501 16.760852 -2.090763 -157.670900 80.056361 -138.288470 -13.901349 1.440092 -2.985348 -1.768149 6.294760 -15.906867 0.530423 3.323288 52.459137 3.041753 19.704442 6.646154 4.486000 0.000000 -38.981500 6.596076 0.223471 1.235076 5.283556 9.342105 -39.474221 2.481760 -1.162062 23.189617 0.539664 3.511597 2.396841 0.206300 0.000000 -55.100599
3.304862 16.797587 -2.096445 -159.481560 79.371144 -140.013258 -13.886829 1.329501 -3.046635 -1.967262 6.691399 -17.629171 0.586992 3.446712 54.485248 3.214049 20.950301 6.075208 4.650200 -0.000000 -35.755300 6.643551 0.191779 1.209258 5.337403 9.128249 -38.662146 2.479266 -1.101616 23.021090 0.444092 3.030815 1.690101 0.092300 -0.000000 -55.090400
3.463768 16.838020 -2.102938 -161.339761 78.678504 -141.774696 -13.844320 1.225747 -3.089569 -2.284696 6.955894 -19.330157 0.637062 3.559671 56.310147 3.357772 21.976161 5.357549 4.692700 -0.000000 -33.430900 6.709839 0.163870 1.180537 5.325997 8.866132 -37.788478 2.471888 -1.030137 22.658495 0.349329 2.536421 1.173565 -0.009800 -0.000000 -55.019000
